<mxfile host="app.diagrams.net" modified="2020-08-20T06:53:14.664Z" agent="5.0 (Windows NT 10.0; Win64; x64) AppleWebKit/537.36 (KHTML, like Gecko) Chrome/83.0.4103.106 Safari/537.36 OPR/69.0.3686.66" etag="8IL2s2oKZEOfSBXu7ax0" version="13.6.3" type="github">
  <diagram id="u7ltzh_uHDB_XK1V_iwC" name="Page-1">
    <mxGraphModel dx="742" dy="508" grid="1" gridSize="10" guides="1" tooltips="1" connect="1" arrows="1" fold="1" page="1" pageScale="1" pageWidth="850" pageHeight="1100" math="0" shadow="0">
      <root>
        <mxCell id="0" />
        <mxCell id="1" parent="0" />
        <mxCell id="GVK7rI1TbYUse70XCFeg-5" value="" style="edgeStyle=orthogonalEdgeStyle;rounded=0;orthogonalLoop=1;jettySize=auto;html=1;" parent="1" source="GVK7rI1TbYUse70XCFeg-1" target="GVK7rI1TbYUse70XCFeg-4" edge="1">
          <mxGeometry relative="1" as="geometry" />
        </mxCell>
        <mxCell id="GVK7rI1TbYUse70XCFeg-1" value="Start(training)" style="rounded=1;whiteSpace=wrap;html=1;" parent="1" vertex="1">
          <mxGeometry x="310" y="60" width="120" height="60" as="geometry" />
        </mxCell>
        <mxCell id="GVK7rI1TbYUse70XCFeg-7" value="" style="edgeStyle=orthogonalEdgeStyle;rounded=0;orthogonalLoop=1;jettySize=auto;html=1;" parent="1" source="GVK7rI1TbYUse70XCFeg-4" target="GVK7rI1TbYUse70XCFeg-6" edge="1">
          <mxGeometry relative="1" as="geometry" />
        </mxCell>
        <mxCell id="GVK7rI1TbYUse70XCFeg-4" value="current_id = 0&lt;br&gt;label_ids = {}&lt;br&gt;labels = []&lt;br&gt;train = []" style="rounded=0;whiteSpace=wrap;html=1;" parent="1" vertex="1">
          <mxGeometry x="310" y="170" width="120" height="80" as="geometry" />
        </mxCell>
        <mxCell id="GVK7rI1TbYUse70XCFeg-9" value="" style="edgeStyle=orthogonalEdgeStyle;rounded=0;orthogonalLoop=1;jettySize=auto;html=1;" parent="1" source="GVK7rI1TbYUse70XCFeg-6" target="GVK7rI1TbYUse70XCFeg-8" edge="1">
          <mxGeometry relative="1" as="geometry" />
        </mxCell>
        <mxCell id="YRlCc5pRuM1rx9sRa8mx-2" value="" style="edgeStyle=orthogonalEdgeStyle;rounded=0;orthogonalLoop=1;jettySize=auto;html=1;" edge="1" parent="1" source="GVK7rI1TbYUse70XCFeg-6" target="YRlCc5pRuM1rx9sRa8mx-1">
          <mxGeometry relative="1" as="geometry" />
        </mxCell>
        <mxCell id="GVK7rI1TbYUse70XCFeg-6" value="Walk though img directory" style="rounded=0;whiteSpace=wrap;html=1;" parent="1" vertex="1">
          <mxGeometry x="310" y="310" width="120" height="60" as="geometry" />
        </mxCell>
        <mxCell id="GVK7rI1TbYUse70XCFeg-11" value="" style="edgeStyle=orthogonalEdgeStyle;rounded=0;orthogonalLoop=1;jettySize=auto;html=1;" parent="1" source="GVK7rI1TbYUse70XCFeg-8" target="GVK7rI1TbYUse70XCFeg-10" edge="1">
          <mxGeometry relative="1" as="geometry" />
        </mxCell>
        <mxCell id="GVK7rI1TbYUse70XCFeg-8" value="Give labels ( like 1,2,3..) to every person&amp;nbsp;" style="rounded=0;whiteSpace=wrap;html=1;" parent="1" vertex="1">
          <mxGeometry x="310" y="450" width="120" height="60" as="geometry" />
        </mxCell>
        <mxCell id="GVK7rI1TbYUse70XCFeg-13" value="" style="edgeStyle=orthogonalEdgeStyle;rounded=0;orthogonalLoop=1;jettySize=auto;html=1;" parent="1" source="GVK7rI1TbYUse70XCFeg-10" target="GVK7rI1TbYUse70XCFeg-12" edge="1">
          <mxGeometry relative="1" as="geometry" />
        </mxCell>
        <mxCell id="GVK7rI1TbYUse70XCFeg-10" value="Move labeled image to trainer" style="rounded=0;whiteSpace=wrap;html=1;" parent="1" vertex="1">
          <mxGeometry x="310" y="590" width="120" height="60" as="geometry" />
        </mxCell>
        <mxCell id="GVK7rI1TbYUse70XCFeg-12" value="Save trainer in directory for future detection of image" style="rounded=0;whiteSpace=wrap;html=1;" parent="1" vertex="1">
          <mxGeometry x="310" y="730" width="120" height="60" as="geometry" />
        </mxCell>
        <mxCell id="YRlCc5pRuM1rx9sRa8mx-1" value="&lt;div style=&quot;text-align: left&quot;&gt;&lt;br&gt;&lt;/div&gt;" style="ellipse;shape=cloud;whiteSpace=wrap;html=1;rounded=0;" vertex="1" parent="1">
          <mxGeometry x="520" y="190" width="230" height="240" as="geometry" />
        </mxCell>
        <mxCell id="YRlCc5pRuM1rx9sRa8mx-7" value="" style="endArrow=none;html=1;" edge="1" parent="1">
          <mxGeometry width="50" height="50" relative="1" as="geometry">
            <mxPoint x="610" y="370" as="sourcePoint" />
            <mxPoint x="610" y="260" as="targetPoint" />
          </mxGeometry>
        </mxCell>
        <mxCell id="YRlCc5pRuM1rx9sRa8mx-8" value="img" style="text;html=1;align=center;verticalAlign=middle;resizable=0;points=[];autosize=1;" vertex="1" parent="1">
          <mxGeometry x="600" y="240" width="30" height="20" as="geometry" />
        </mxCell>
        <mxCell id="YRlCc5pRuM1rx9sRa8mx-9" value="" style="endArrow=none;html=1;" edge="1" parent="1">
          <mxGeometry width="50" height="50" relative="1" as="geometry">
            <mxPoint x="610" y="280" as="sourcePoint" />
            <mxPoint x="640" y="280" as="targetPoint" />
          </mxGeometry>
        </mxCell>
        <mxCell id="YRlCc5pRuM1rx9sRa8mx-10" value="Person1" style="text;html=1;align=center;verticalAlign=middle;resizable=0;points=[];autosize=1;" vertex="1" parent="1">
          <mxGeometry x="640" y="270" width="60" height="20" as="geometry" />
        </mxCell>
        <mxCell id="YRlCc5pRuM1rx9sRa8mx-11" value="" style="aspect=fixed;perimeter=ellipsePerimeter;html=1;align=center;shadow=0;dashed=0;spacingTop=3;image;image=img/lib/active_directory/folder.svg;" vertex="1" parent="1">
          <mxGeometry x="607" y="218.08" width="16" height="21.92" as="geometry" />
        </mxCell>
        <mxCell id="YRlCc5pRuM1rx9sRa8mx-13" value="" style="endArrow=none;html=1;" edge="1" parent="1">
          <mxGeometry width="50" height="50" relative="1" as="geometry">
            <mxPoint x="630" y="300" as="sourcePoint" />
            <mxPoint x="660" y="300" as="targetPoint" />
          </mxGeometry>
        </mxCell>
        <mxCell id="YRlCc5pRuM1rx9sRa8mx-15" value="img1" style="text;html=1;align=center;verticalAlign=middle;resizable=0;points=[];autosize=1;" vertex="1" parent="1">
          <mxGeometry x="660" y="290" width="40" height="20" as="geometry" />
        </mxCell>
        <mxCell id="YRlCc5pRuM1rx9sRa8mx-19" value="" style="endArrow=none;html=1;" edge="1" parent="1">
          <mxGeometry width="50" height="50" relative="1" as="geometry">
            <mxPoint x="630" y="320" as="sourcePoint" />
            <mxPoint x="660" y="320" as="targetPoint" />
          </mxGeometry>
        </mxCell>
        <mxCell id="YRlCc5pRuM1rx9sRa8mx-20" value="img2" style="text;html=1;align=center;verticalAlign=middle;resizable=0;points=[];autosize=1;" vertex="1" parent="1">
          <mxGeometry x="660" y="310" width="40" height="20" as="geometry" />
        </mxCell>
        <mxCell id="YRlCc5pRuM1rx9sRa8mx-27" value="" style="endArrow=none;html=1;" edge="1" parent="1">
          <mxGeometry width="50" height="50" relative="1" as="geometry">
            <mxPoint x="610" y="340" as="sourcePoint" />
            <mxPoint x="640" y="340" as="targetPoint" />
          </mxGeometry>
        </mxCell>
        <mxCell id="YRlCc5pRuM1rx9sRa8mx-28" value="Person2" style="text;html=1;align=center;verticalAlign=middle;resizable=0;points=[];autosize=1;" vertex="1" parent="1">
          <mxGeometry x="640" y="330" width="60" height="20" as="geometry" />
        </mxCell>
        <mxCell id="YRlCc5pRuM1rx9sRa8mx-29" value="" style="endArrow=none;html=1;" edge="1" parent="1">
          <mxGeometry width="50" height="50" relative="1" as="geometry">
            <mxPoint x="630" y="360" as="sourcePoint" />
            <mxPoint x="660" y="360" as="targetPoint" />
          </mxGeometry>
        </mxCell>
        <mxCell id="YRlCc5pRuM1rx9sRa8mx-30" value="img3" style="text;html=1;align=center;verticalAlign=middle;resizable=0;points=[];autosize=1;" vertex="1" parent="1">
          <mxGeometry x="660" y="350" width="40" height="20" as="geometry" />
        </mxCell>
        <mxCell id="YRlCc5pRuM1rx9sRa8mx-31" value="" style="endArrow=none;html=1;" edge="1" parent="1">
          <mxGeometry width="50" height="50" relative="1" as="geometry">
            <mxPoint x="630" y="380" as="sourcePoint" />
            <mxPoint x="660" y="380" as="targetPoint" />
          </mxGeometry>
        </mxCell>
        <mxCell id="YRlCc5pRuM1rx9sRa8mx-32" value="img4" style="text;html=1;align=center;verticalAlign=middle;resizable=0;points=[];autosize=1;" vertex="1" parent="1">
          <mxGeometry x="660" y="370" width="40" height="20" as="geometry" />
        </mxCell>
      </root>
    </mxGraphModel>
  </diagram>
</mxfile>
